<?xml version="1.0" encoding="UTF-8"?>
<svg xmlns="http://www.w3.org/2000/svg" width="316" height="160" viewBox="0 0 316 160" fill="none">
  <g clip-path="url(#clip0_649_22)">
    <path d="M108.737 158.575C104.219 157.65 99.803 156.28 95.5543 154.485C91.3794 152.718 87.3848 150.552 83.6264 148.016C79.8979 145.496 76.4177 142.626 73.2325 139.446C70.0505 136.265 67.179 132.787 64.6575 129.059C62.1198 125.304 59.9517 121.312 58.1837 117.138C56.3882 112.894 55.0178 108.482 54.0922 103.967C53.283 100.001 52.8164 95.973 52.6974 91.9271H52.6652V-0.000488281H87.7777V35.7879H122.188V70.1737H87.7777V89.8225H87.8937C87.9106 99.1007 91.6042 107.994 98.1644 114.55C104.725 121.106 113.616 124.791 122.887 124.795V159.999C118.135 160.001 113.394 159.524 108.737 158.575ZM193.111 157.896C193.109 153.145 193.588 148.406 194.538 143.752C195.465 139.236 196.835 134.824 198.63 130.578C200.399 126.406 202.567 122.414 205.103 118.659C207.625 114.933 210.497 111.455 213.678 108.274C216.862 105.092 220.342 102.223 224.072 99.7045C226.237 98.2429 228.481 96.9033 230.794 95.6915L193.111 58.0307L215.953 35.2043L250.509 69.7366C258.883 68.5883 266.559 64.4478 272.122 58.0787C277.684 51.7097 280.757 43.5419 280.772 35.0832H316.003C316.004 39.8334 315.526 44.5717 314.576 49.2257C313.651 53.7418 312.28 58.155 310.485 62.4005C308.717 66.5746 306.548 70.5669 304.009 74.3213C301.488 78.0478 298.617 81.525 295.436 84.7053C292.252 87.8876 288.772 90.7573 285.042 93.2749C282.828 94.7699 280.53 96.1368 278.16 97.3694L315.762 134.946L292.92 157.771L258.393 123.268C250.063 124.462 242.44 128.62 236.922 134.978C231.403 141.337 228.358 149.472 228.343 157.894L193.111 157.896ZM140.444 157.896V35.787H175.555V157.896H140.444ZM-0.000976562 157.896V35.787H35.8139V157.896H-0.000976562Z" fill="#2850D1"></path>
  </g>
  <defs>
    <clipPath id="clip0_649_22">
      <rect width="316" height="160" fill="white"></rect>
    </clipPath>
  </defs>
</svg>
